<?xml version="1.0" encoding="utf-8"?>
<svg viewBox="0 0 140.105 21.462" xmlns="http://www.w3.org/2000/svg">
  <defs>
    <clipPath id="clip-1">
      <path d="M 64 0 L 126 0 L 126 100 L 64 100 Z M 64 0 "/>
    </clipPath>
    <clipPath id="clip-2">
      <path d="M 123.863281 0 C 123.863281 0 70.414062 9.578125 64.835938 48.085938 C 64.835938 48.085938 61.375 75.757812 75.21875 99.75 C 75.21875 99.75 120.402344 91.429688 101.371094 56.597656 C 101.371094 56.597656 134.253906 58.925781 123.863281 0 Z M 123.863281 0 "/>
    </clipPath>
    <clipPath id="clip-3">
      <path d="M 0 0 L 41 0 L 41 27 L 0 27 Z M 0 0 "/>
    </clipPath>
    <clipPath id="clip-4">
      <path d="M 40.976562 16.71875 C 23.777344 3.898438 2.023438 0 2.023438 0 C 0.101562 10.90625 -0.332031 19.707031 0.226562 26.820312 Z M 40.976562 16.71875 "/>
    </clipPath>
    <clipPath id="clip-5">
      <path d="M 39 23 L 62 23 L 62 66 L 39 66 Z M 39 23 "/>
    </clipPath>
    <clipPath id="clip-6">
      <path d="M 48.230469 23.011719 C 45.367188 27.148438 42.21875 31.699219 39.046875 36.277344 L 61.019531 65.316406 C 61.941406 55.1875 61.054688 48.085938 61.054688 48.085938 C 59.5625 37.777344 54.636719 29.546875 48.230469 23.011719 Z M 48.230469 23.011719 "/>
    </clipPath>
    <clipPath id="clip-7">
      <path d="M 0 19 L 46 19 L 46 57 L 0 57 Z M 0 19 "/>
    </clipPath>
    <clipPath id="clip-8">
      <path d="M 45.765625 20.648438 C 45.289062 20.21875 44.804688 19.792969 44.3125 19.378906 L 0.582031 30.214844 C 3.332031 50.789062 15.117188 55.363281 21.0625 56.351562 C 28.21875 46.003906 39.660156 29.472656 45.765625 20.648438 Z M 45.765625 20.648438 "/>
    </clipPath>
    <clipPath id="clip-9">
      <path d="M 29 59 L 61 59 L 61 100 L 29 100 Z M 29 59 "/>
    </clipPath>
    <clipPath id="clip-10">
      <path d="M 52.292969 59.371094 L 29.597656 90.597656 C 38.632812 97.535156 50.671875 99.75 50.671875 99.75 C 56.429688 89.773438 59.191406 79.160156 60.457031 70.164062 Z M 52.292969 59.371094 "/>
    </clipPath>
    <clipPath id="clip-11">
      <path d="M 19 39 L 51 39 L 51 89 L 19 89 Z M 19 39 "/>
    </clipPath>
    <clipPath id="clip-12">
      <path d="M 27.027344 88.398438 L 50.167969 56.5625 L 37.027344 39.195312 C 31.894531 46.613281 26.890625 53.84375 23.238281 59.128906 C 16.738281 72.8125 20.472656 82.160156 27.027344 88.398438 Z M 27.027344 88.398438 "/>
    </clipPath>
    <clipPath id="clip-13">
      <path d="M 64 0 L 126 0 L 126 100 L 64 100 Z M 64 0 "/>
    </clipPath>
    <clipPath id="clip-14">
      <path d="M 123.863281 0 C 123.863281 0 70.414062 9.578125 64.835938 48.085938 C 64.835938 48.085938 61.375 75.757812 75.21875 99.75 C 75.21875 99.75 120.402344 91.429688 101.371094 56.597656 C 101.371094 56.597656 134.253906 58.925781 123.863281 0 Z M 123.863281 0 "/>
    </clipPath>
    <linearGradient id="gradient-1" gradientUnits="userSpaceOnUse" x1="0" y1="0" x2="1" y2="0" gradientTransform="matrix(0.642721,122.249866,-121.474623,0.646823,94.826928,-27.236169)">
      <stop offset="0" style="stop-color:rgb(59.215686%,38.431373%,9.803922%);stop-opacity:1;"/>
      <stop offset="0.5429" style="stop-color:rgb(93.333333%,90.196078%,38.431373%);stop-opacity:1;"/>
      <stop offset="0.8308" style="stop-color:rgb(72.941176%,59.215686%,20.392157%);stop-opacity:1;"/>
      <stop offset="1" style="stop-color:rgb(59.215686%,38.431373%,9.803922%);stop-opacity:1;"/>
    </linearGradient>
    <clipPath id="clip-15">
      <path d="M 0 0 L 41 0 L 41 27 L 0 27 Z M 0 0 "/>
    </clipPath>
    <clipPath id="clip-16">
      <path d="M 40.976562 16.71875 C 23.777344 3.898438 2.023438 0 2.023438 0 C 0.101562 10.90625 -0.332031 19.707031 0.226562 26.820312 Z M 40.976562 16.71875 "/>
    </clipPath>
    <linearGradient id="gradient-2" gradientUnits="userSpaceOnUse" x1="0" y1="0" x2="1" y2="0" gradientTransform="matrix(0.642721,122.249866,-121.474623,0.646823,20.248091,-26.839606)">
      <stop offset="0" style="stop-color:rgb(59.215686%,38.431373%,9.803922%);stop-opacity:1;"/>
      <stop offset="0.5429" style="stop-color:rgb(93.333333%,90.196078%,38.431373%);stop-opacity:1;"/>
      <stop offset="0.8308" style="stop-color:rgb(72.941176%,59.215686%,20.392157%);stop-opacity:1;"/>
      <stop offset="1" style="stop-color:rgb(59.215686%,38.431373%,9.803922%);stop-opacity:1;"/>
    </linearGradient>
    <clipPath id="clip-17">
      <path d="M 39 23 L 62 23 L 62 66 L 39 66 Z M 39 23 "/>
    </clipPath>
    <clipPath id="clip-18">
      <path d="M 48.230469 23.011719 C 45.367188 27.148438 42.21875 31.699219 39.046875 36.277344 L 61.019531 65.316406 C 61.941406 55.1875 61.054688 48.085938 61.054688 48.085938 C 59.5625 37.777344 54.636719 29.546875 48.230469 23.011719 Z M 48.230469 23.011719 "/>
    </clipPath>
    <linearGradient id="gradient-3" gradientUnits="userSpaceOnUse" x1="0" y1="0" x2="1" y2="0" gradientTransform="matrix(0.642721,122.249866,-121.474623,0.646823,49.859724,-26.996994)">
      <stop offset="0" style="stop-color:rgb(59.215686%,38.431373%,9.803922%);stop-opacity:1;"/>
      <stop offset="0.5429" style="stop-color:rgb(93.333333%,90.196078%,38.431373%);stop-opacity:1;"/>
      <stop offset="0.8308" style="stop-color:rgb(72.941176%,59.215686%,20.392157%);stop-opacity:1;"/>
      <stop offset="1" style="stop-color:rgb(59.215686%,38.431373%,9.803922%);stop-opacity:1;"/>
    </linearGradient>
    <clipPath id="clip-19">
      <path d="M 0 19 L 46 19 L 46 57 L 0 57 Z M 0 19 "/>
    </clipPath>
    <clipPath id="clip-20">
      <path d="M 45.765625 20.648438 C 45.289062 20.21875 44.804688 19.792969 44.3125 19.378906 L 0.582031 30.214844 C 3.332031 50.789062 15.117188 55.363281 21.0625 56.351562 C 28.21875 46.003906 39.660156 29.472656 45.765625 20.648438 Z M 45.765625 20.648438 "/>
    </clipPath>
    <linearGradient id="gradient-4" gradientUnits="userSpaceOnUse" x1="0" y1="0" x2="1" y2="0" gradientTransform="matrix(0.642721,122.249866,-121.474623,0.646823,22.899889,-26.853352)">
      <stop offset="0" style="stop-color:rgb(59.215686%,38.431373%,9.803922%);stop-opacity:1;"/>
      <stop offset="0.5429" style="stop-color:rgb(93.333333%,90.196078%,38.431373%);stop-opacity:1;"/>
      <stop offset="0.8308" style="stop-color:rgb(72.941176%,59.215686%,20.392157%);stop-opacity:1;"/>
      <stop offset="1" style="stop-color:rgb(59.215686%,38.431373%,9.803922%);stop-opacity:1;"/>
    </linearGradient>
    <clipPath id="clip-21">
      <path d="M 29 59 L 61 59 L 61 100 L 29 100 Z M 29 59 "/>
    </clipPath>
    <clipPath id="clip-22">
      <path d="M 52.292969 59.371094 L 29.597656 90.597656 C 38.632812 97.535156 50.671875 99.75 50.671875 99.75 C 56.429688 89.773438 59.191406 79.160156 60.457031 70.164062 Z M 52.292969 59.371094 "/>
    </clipPath>
    <linearGradient id="gradient-5" gradientUnits="userSpaceOnUse" x1="0" y1="0" x2="1" y2="0" gradientTransform="matrix(0.642721,122.249866,-121.474623,0.646823,44.463932,-26.968128)">
      <stop offset="0" style="stop-color:rgb(59.215686%,38.431373%,9.803922%);stop-opacity:1;"/>
      <stop offset="0.5429" style="stop-color:rgb(93.333333%,90.196078%,38.431373%);stop-opacity:1;"/>
      <stop offset="0.8308" style="stop-color:rgb(72.941176%,59.215686%,20.392157%);stop-opacity:1;"/>
      <stop offset="1" style="stop-color:rgb(59.215686%,38.431373%,9.803922%);stop-opacity:1;"/>
    </linearGradient>
    <clipPath id="clip-23">
      <path d="M 19 39 L 51 39 L 51 89 L 19 89 Z M 19 39 "/>
    </clipPath>
    <clipPath id="clip-24">
      <path d="M 27.027344 88.398438 L 50.167969 56.5625 L 37.027344 39.195312 C 31.894531 46.613281 26.890625 53.84375 23.238281 59.128906 C 16.738281 72.8125 20.472656 82.160156 27.027344 88.398438 Z M 27.027344 88.398438 "/>
    </clipPath>
    <linearGradient id="gradient-6" gradientUnits="userSpaceOnUse" x1="0" y1="0" x2="1" y2="0" gradientTransform="matrix(0.642721,122.249866,-121.474623,0.646823,34.528738,-26.915207)">
      <stop offset="0" style="stop-color:rgb(59.215686%,38.431373%,9.803922%);stop-opacity:1;"/>
      <stop offset="0.5429" style="stop-color:rgb(93.333333%,90.196078%,38.431373%);stop-opacity:1;"/>
      <stop offset="0.8308" style="stop-color:rgb(72.941176%,59.215686%,20.392157%);stop-opacity:1;"/>
      <stop offset="1" style="stop-color:rgb(59.215686%,38.431373%,9.803922%);stop-opacity:1;"/>
    </linearGradient>
  </defs>
  <linearGradient id="a" gradientUnits="objectBoundingBox" x1=".536" x2=".011" y1=".026" y2="1">
    <stop offset="0" stop-color="#03d1cf" stop-opacity=".988"/>
    <stop offset="1" stop-color="#4e09f8"/>
  </linearGradient>
  <path d="m555.182 717.462-14.735-21.462-14.78 21.462h20.592l-5.812-8.191-2.883 4.256h-3.064l5.949-8.557 8.6 12.493z" fill="url(#a)" transform="matrix(1, 0, 0, 1, -525.6669921875, -696)"/>
  <path d="m9.216-8.544c-.168 0-.24.072-.24.24v1.44c0 .168.072.24.24.24h4.776v2.524a5.361 5.361 0 0 1 -4.848 2.42c-3.576 0-5.784-2.3-5.784-6.72 0-4.392 2.592-6.72 5.544-6.72 2.3 0 4.176.912 4.776 3.12a.281.281 0 0 0 .288.24h1.532c.168 0 .264-.072.264-.24-.648-3.36-3.528-5.04-6.864-5.04-3.744 0-7.656 2.88-7.656 8.64 0 5.688 3.7 8.64 7.992 8.64a7.468 7.468 0 0 0 6.528-3.456 1.567 1.567 0 0 0 .24-.912v-4.172c0-.168-.072-.24-.24-.24zm24.912-8.016c0-.168-.072-.24-.24-.24h-2.28a.37.37 0 0 0 -.384.24l-4.656 10.68-4.656-10.68a.37.37 0 0 0 -.384-.24h-2.28c-.168 0-.24.072-.24.24v16.32c0 .168.072.24.24.24h1.536c.168 0 .24-.072.24-.24v-13.416l4.7 10.632a.331.331 0 0 0 .312.216h1.064a.331.331 0 0 0 .312-.216l4.7-10.632v13.416c0 .168.072.24.24.24h1.536c.168 0 .24-.072.24-.24zm5.232 0c-.168-.216-.168-.24-.336-.24h-1.848c-.168 0-.24.12-.168.24l5.088 7.7-5.712 8.62c-.072.12 0 .24.168.24h1.8c.168 0 .216-.024.384-.24l4.564-6.86 4.556 6.86c.168.216.216.24.384.24h1.8c.168 0 .24-.12.168-.24l-5.708-8.616 5.088-7.7c.072-.12 0-.24-.168-.24h-1.852c-.168 0-.168.024-.336.24l-3.932 5.924z" style="fill: rgb(255, 255, 255);" transform="matrix(1, 0, 0, 1, 32.641998291015625, 19.131000518798828)"/>
  <path d="M 40.721 19.002 L 47.322 2.365 L 49.27 2.365 L 42.669 19.002 L 40.721 19.002 Z M 53.085 18.782 L 53.085 17.015 L 58.271 17.015 C 59.389 17.015 60.182 16.776 60.651 16.299 C 61.12 15.822 61.354 15.162 61.354 14.319 L 61.354 13.854 C 61.354 12.994 61.115 12.328 60.638 11.855 C 60.161 11.382 59.329 11.145 58.142 11.145 L 53.098 11.145 L 53.098 9.455 L 58.116 9.455 C 59.174 9.455 59.929 9.225 60.38 8.765 C 60.832 8.305 61.058 7.666 61.058 6.849 L 61.058 6.617 C 61.058 5.809 60.841 5.179 60.406 4.727 C 59.972 4.276 59.205 4.05 58.104 4.05 L 53.047 4.05 L 53.047 2.296 L 58.297 2.296 C 60.052 2.296 61.307 2.644 62.064 3.341 C 62.821 4.038 63.199 5.018 63.199 6.282 L 63.199 6.54 C 63.199 7.546 62.958 8.337 62.477 8.913 C 61.995 9.49 61.247 9.834 60.232 9.945 L 60.219 10.023 C 61.38 10.195 62.223 10.599 62.748 11.235 C 63.272 11.872 63.534 12.758 63.534 13.893 L 63.534 14.422 C 63.534 15.789 63.139 16.858 62.348 17.627 C 61.557 18.397 60.267 18.782 58.478 18.782 L 53.085 18.782 Z M 51.628 18.782 L 51.628 2.296 L 53.743 2.296 L 53.743 18.782 L 51.628 18.782 Z M 68.072 18.782 L 68.072 17.015 L 73.258 17.015 C 74.376 17.015 75.169 16.776 75.638 16.299 C 76.107 15.822 76.341 15.162 76.341 14.319 L 76.341 13.854 C 76.341 12.994 76.102 12.328 75.625 11.855 C 75.148 11.382 74.316 11.145 73.129 11.145 L 68.085 11.145 L 68.085 9.455 L 73.103 9.455 C 74.161 9.455 74.916 9.225 75.367 8.765 C 75.819 8.305 76.045 7.666 76.045 6.849 L 76.045 6.617 C 76.045 5.809 75.828 5.179 75.393 4.727 C 74.959 4.276 74.191 4.05 73.09 4.05 L 68.034 4.05 L 68.034 2.296 L 73.284 2.296 C 75.039 2.296 76.294 2.644 77.051 3.341 C 77.808 4.038 78.186 5.018 78.186 6.282 L 78.186 6.54 C 78.186 7.546 77.945 8.337 77.464 8.913 C 76.982 9.49 76.234 9.834 75.219 9.945 L 75.206 10.023 C 76.367 10.195 77.21 10.599 77.734 11.235 C 78.259 11.872 78.521 12.758 78.521 13.893 L 78.521 14.422 C 78.521 15.789 78.126 16.858 77.335 17.627 C 76.544 18.397 75.254 18.782 73.465 18.782 L 68.072 18.782 Z M 66.615 18.782 L 66.615 2.296 L 68.73 2.296 L 68.73 18.782 L 66.615 18.782 Z M 80.144 18.782 L 85.24 9.997 L 85.24 10.487 L 80.26 2.296 L 82.595 2.296 L 86.697 9.146 L 86.852 9.146 L 90.942 2.296 L 93.276 2.296 L 88.31 10.487 L 88.31 9.997 L 93.38 18.782 L 91.019 18.782 L 86.852 11.481 L 86.685 11.481 L 82.518 18.782 L 80.144 18.782 Z" transform="matrix(1.0354230403900146, 0, 0, 1.0120149850845337, 43.24479293823242, -0.045268721878528595)" style="fill: rgb(255, 255, 255);"/>
  <g transform="matrix(0.104171, 0, 0, 0.104171, 8.076, 5.997485)" style="">
    <g id="g-1" transform="matrix(-1.827922, 0, 0, 1.827922, 181.93605, -39.347198)" style="pointer-events: none;">
      <g clip-path="url(#clip-1)" clip-rule="nonzero">
        <g clip-path="url(#clip-2)" clip-rule="nonzero">
          <path style="stroke: none; fill-rule: nonzero; fill: rgba(203, 203, 203, 0.16);" d="M 123.863281 0 C 123.863281 0 70.414062 9.578125 64.835938 48.085938 C 64.835938 48.085938 61.375 75.757812 75.21875 99.75 C 75.21875 99.75 120.402344 91.429688 101.371094 56.597656 C 101.371094 56.597656 134.253906 58.925781 123.863281 0 "/>
        </g>
      </g>
      <g clip-path="url(#clip-3)" clip-rule="nonzero">
        <g clip-path="url(#clip-4)" clip-rule="nonzero">
          <path style="stroke: none; fill-rule: nonzero; fill: rgba(203, 203, 203, 0.16);" d="M 40.976562 16.71875 C 23.777344 3.898438 2.023438 0 2.023438 0 C 0.101562 10.90625 -0.332031 19.707031 0.226562 26.820312 L 40.976562 16.71875 "/>
        </g>
      </g>
      <g clip-path="url(#clip-5)" clip-rule="nonzero">
        <g clip-path="url(#clip-6)" clip-rule="nonzero">
          <path style="stroke: none; fill-rule: nonzero; fill: rgba(203, 203, 203, 0.16);" d="M 48.230469 23.011719 C 45.367188 27.148438 42.21875 31.699219 39.046875 36.277344 L 61.019531 65.316406 C 61.941406 55.1875 61.054688 48.085938 61.054688 48.085938 C 59.5625 37.777344 54.636719 29.546875 48.230469 23.011719 "/>
        </g>
      </g>
      <g clip-path="url(#clip-7)" clip-rule="nonzero">
        <g clip-path="url(#clip-8)" clip-rule="nonzero">
          <path style="stroke: none; fill-rule: nonzero; fill: rgba(203, 203, 203, 0.16);" d="M 45.765625 20.648438 C 45.289062 20.21875 44.804688 19.792969 44.3125 19.378906 L 0.582031 30.214844 C 3.332031 50.789062 15.117188 55.363281 21.0625 56.351562 C 28.21875 46.003906 39.660156 29.472656 45.765625 20.648438 "/>
        </g>
      </g>
      <g clip-path="url(#clip-9)" clip-rule="nonzero">
        <g clip-path="url(#clip-10)" clip-rule="nonzero">
          <path style="stroke: none; fill-rule: nonzero; fill: rgba(203, 203, 203, 0.16);" d="M 52.292969 59.371094 L 29.597656 90.597656 C 38.632812 97.535156 50.671875 99.75 50.671875 99.75 C 56.429688 89.773438 59.191406 79.160156 60.457031 70.164062 L 52.292969 59.371094 "/>
        </g>
      </g>
      <g clip-path="url(#clip-11)" clip-rule="nonzero">
        <g clip-path="url(#clip-12)" clip-rule="nonzero">
          <path style="stroke: none; fill-rule: nonzero; fill: rgba(203, 203, 203, 0.16);" d="M 27.027344 88.398438 L 50.167969 56.5625 L 37.027344 39.195312 C 31.894531 46.613281 26.890625 53.84375 23.238281 59.128906 C 16.738281 72.8125 20.472656 82.160156 27.027344 88.398438 "/>
        </g>
      </g>
    </g>
    <g id="g-2" transform="matrix(1, 0, 0, 1, 3.927091, -10.023319)">
      <g clip-path="url(#clip-13)" clip-rule="nonzero">
        <g clip-path="url(#clip-14)" clip-rule="nonzero">
          <path style="stroke: none; fill-rule: nonzero; fill: url('#gradient-1');" d="M 123.863281 0 C 123.863281 0 70.414062 9.578125 64.835938 48.085938 C 64.835938 48.085938 61.375 75.757812 75.21875 99.75 C 75.21875 99.75 120.402344 91.429688 101.371094 56.597656 C 101.371094 56.597656 134.253906 58.925781 123.863281 0 "/>
        </g>
      </g>
      <g clip-path="url(#clip-15)" clip-rule="nonzero">
        <g clip-path="url(#clip-16)" clip-rule="nonzero">
          <path style="stroke: none; fill-rule: nonzero; fill: url('#gradient-2');" d="M 40.976562 16.71875 C 23.777344 3.898438 2.023438 0 2.023438 0 C 0.101562 10.90625 -0.332031 19.707031 0.226562 26.820312 L 40.976562 16.71875 "/>
        </g>
      </g>
      <g clip-path="url(#clip-17)" clip-rule="nonzero">
        <g clip-path="url(#clip-18)" clip-rule="nonzero">
          <path style="stroke: none; fill-rule: nonzero; fill: url('#gradient-3');" d="M 48.230469 23.011719 C 45.367188 27.148438 42.21875 31.699219 39.046875 36.277344 L 61.019531 65.316406 C 61.941406 55.1875 61.054688 48.085938 61.054688 48.085938 C 59.5625 37.777344 54.636719 29.546875 48.230469 23.011719 "/>
        </g>
      </g>
      <g clip-path="url(#clip-19)" clip-rule="nonzero">
        <g clip-path="url(#clip-20)" clip-rule="nonzero">
          <path style="stroke: none; fill-rule: nonzero; fill: url('#gradient-4');" d="M 45.765625 20.648438 C 45.289062 20.21875 44.804688 19.792969 44.3125 19.378906 L 0.582031 30.214844 C 3.332031 50.789062 15.117188 55.363281 21.0625 56.351562 C 28.21875 46.003906 39.660156 29.472656 45.765625 20.648438 "/>
        </g>
      </g>
      <g clip-path="url(#clip-21)" clip-rule="nonzero">
        <g clip-path="url(#clip-22)" clip-rule="nonzero">
          <path style="stroke: none; fill-rule: nonzero; fill: url('#gradient-5');" d="M 52.292969 59.371094 L 29.597656 90.597656 C 38.632812 97.535156 50.671875 99.75 50.671875 99.75 C 56.429688 89.773438 59.191406 79.160156 60.457031 70.164062 L 52.292969 59.371094 "/>
        </g>
      </g>
      <g clip-path="url(#clip-23)" clip-rule="nonzero">
        <g clip-path="url(#clip-24)" clip-rule="nonzero">
          <path style="stroke: none; fill-rule: nonzero; fill: url('#gradient-6');" d="M 27.027344 88.398438 L 50.167969 56.5625 L 37.027344 39.195312 C 31.894531 46.613281 26.890625 53.84375 23.238281 59.128906 C 16.738281 72.8125 20.472656 82.160156 27.027344 88.398438 "/>
        </g>
      </g>
    </g>
  </g>
</svg>